#!OML:ASF I:\Actors\actors\Patient Classification 2\Patient 1\Session 1\actor1.ASF
:FULLY-SPECIFIED
:DEGREES
890
root -1.08611 17.5359 7.82688 -9.76323 -1.3487 -5.39888
lowerback 1.54297 0.892273 -0.762021
upperback -6.41014 1.13152 -0.321304
thorax -7.5617 0.59213 -0.00130989
lowerneck -52.0926 -5.32621 -2.08535
upperneck 16.503 -6.36146 3.27406
head 12.837 -2.25588 0.33956
rclavicle -2.38542e-015 -1.03368e-014
rhumerus -16.9968 -30.8012 -24.9773
rradius 123.456
rwrist 12.662
rhand -54.5868 -54.2802
rfingers 7.12502
rthumb -26.9849 -82.373
lclavicle -2.38542e-015 -1.03368e-014
lhumerus -5.40667 21.6411 34.0205
lradius 114.001
lwrist -8.50985
lhand -39.597 -61.9065
lfingers 7.12502
lthumb -12.5792 -32.3052
rfemur 38.2604 1.84809 21.8166
rtibia -21.4876
rfoot -8.62115 -16.5014
rtoes -6.03857
lfemur 40.7822 -1.18791 -11.5741
ltibia -29.7
lfoot 1.39368 16.6923
ltoes -13.6516
891
root -1.07813 17.5428 7.82096 -9.6313 -1.42992 -5.29685
lowerback 1.62602 0.92034 -0.785836
upperback -6.40767 1.16772 -0.309572
thorax -7.60861 0.611769 0.0198555
lowerneck -51.9397 -5.3693 -2.32628
upperneck 16.6353 -6.38008 3.6373
head 12.9028 -2.21756 0.522835
rclavicle -4.77083e-015 -5.56597e-015
rhumerus -16.4429 -31.2455 -24.5951
rradius 122.697
rwrist 12.3004
rhand -54.5135 -53.9903
rfingers 7.12502
rthumb -26.9148 -82.0939
lclavicle -4.77083e-015 -5.56597e-015
lhumerus -4.13859 22.2228 33.922
lradius 113.025
lwrist -8.26833
lhand -39.4975 -61.6276
lfingers 7.12502
lthumb -12.4834 -32.0205
rfemur 37.7383 1.74997 21.6795
rtibia -20.7914
rfoot -9.35645 -16.288
rtoes -5.19098
lfemur 40.3853 -1.52803 -11.8527
ltibia -29.1051
lfoot 0.699346 16.9884
ltoes -12.9326
892
root -1.07115 17.5417 7.81328 -9.43659 -1.48558 -5.18581
lowerback 1.6404 0.937579 -0.845028
upperback -6.3898 1.18914 -0.283356
thorax -7.59986 0.626784 0.0785887
lowerneck -51.6766 -5.30902 -2.36512
upperneck 16.6054 -6.29692 3.66923
head 12.8659 -2.18498 0.559366
rclavicle 5.1684e-015 -4.77083e-015
rhumerus -15.945 -31.6208 -24.2524
rradius 121.872
rwrist 12.0087
rhand -54.4592 -53.8721
rfingers 7.12502
rthumb -26.8628 -81.9837
lclavicle 5.1684e-015 -4.77083e-015
lhumerus -3.14211 22.8774 33.8707
lradius 112.163
lwrist -7.86316
lhand -39.4716 -61.383
lfingers 7.12502
lthumb -12.4584 -31.7743
rfemur 37.1915 1.65758 21.5722
rtibia -20.1858
rfoot -10.1661 -16.1359
rtoes -4.44156
lfemur 39.9486 -1.76105 -12.1211
ltibia -28.5927
lfoot -0.0118493 17.1824
ltoes -12.4456
893
root -1.06615 17.5403 7.80403 -9.14225 -1.60081 -5.03708
lowerback 1.4863 0.972544 -0.957257
upperback -6.34886 1.23188 -0.279287
thorax -7.46901 0.654526 0.145561
lowerneck -51.3819 -5.20164 -2.29041
upperneck 16.4844 -6.17799 3.54544
head 12.7766 -2.1584 0.522075
rclavicle 1.39149e-014 -3.18055e-015
rhumerus -15.5908 -32.0718 -23.8331
rradius 121.093
rwrist 11.6967
rhand -54.3364 -53.8091
rfingers 7.12502
rthumb -26.7453 -81.9386
lclavicle 1.39149e-014 -3.18055e-015
lhumerus -2.15451 23.5849 33.9169
lradius 111.302
lwrist -7.568
lhand -39.687 -61.0761
lfingers 7.12502
lthumb -12.6661 -31.4802
rfemur 36.5714 1.7463 21.4973
rtibia -19.657
rfoot -11.0105 -16.1052
rtoes -3.84729
lfemur 39.4287 -1.9207 -12.4267
ltibia -28.1542
lfoot -0.652031 17.3824
ltoes -12.3511
894
root -1.06026 17.544 7.79382 -8.79468 -1.78794 -4.84927
lowerback 1.27721 1.03488 -1.08347
upperback -6.31807 1.31087 -0.286025
thorax -7.31809 0.70042 0.207416
lowerneck -51.1164 -5.16056 -2.35305
upperneck 16.4481 -6.10275 3.57586
head 12.7372 -2.13105 0.559335
rclavicle -3.37934e-014 1.43125e-014
rhumerus -15.2545 -32.5383 -23.4111
rradius 120.359
rwrist 11.4745
rhand -54.3449 -53.6733
rfingers 7.12502
rthumb -26.7534 -81.8017
lclavicle -3.37934e-014 1.43125e-014
lhumerus -1.29892 24.1937 33.9579
lradius 110.57
lwrist -7.31238
lhand -39.6942 -60.8085
lfingers 7.12502
lthumb -12.673 -31.213
rfemur 35.9161 1.95391 21.3811
rtibia -19.2138
rfoot -11.8002 -16.1257
rtoes -2.95093
lfemur 38.8779 -2.02668 -12.7799
ltibia -27.7736
lfoot -1.13462 17.6575
ltoes -12.6622
895
root -1.0519 17.5511 7.78213 -8.47854 -1.95603 -4.66552
lowerback 1.21849 1.09313 -1.07764
upperback -6.33774 1.38604 -0.344343
thorax -7.30448 0.735136 0.138437
lowerneck -50.9209 -5.22117 -2.50658
upperneck 16.4883 -6.12541 3.69181
head 12.7449 -2.13427 0.623778
rclavicle 1.07344e-014 -5.56597e-015
rhumerus -15.0698 -32.8702 -23.0255
rradius 119.667
rwrist 11.3506
rhand -54.4224 -53.9534
rfingers 7.12502
rthumb -26.8276 -82.0703
lclavicle 1.07344e-014 -5.56597e-015
lhumerus -0.620495 24.5605 33.7443
lradius 109.948
lwrist -6.96087
lhand -39.5187 -60.3862
lfingers 7.12502
lthumb -12.5038 -30.7803
rfemur 35.3165 2.13492 21.2229
rtibia -18.8399
rfoot -12.3907 -16.0931
rtoes -2.32155
lfemur 38.374 -2.08131 -13.1062
ltibia -27.4487
lfoot -1.4633 17.9053
ltoes -13.1784
896
root -1.04382 17.5588 7.76916 -8.19645 -2.14236 -4.57952
lowerback 1.24965 1.14764 -0.93288
upperback -6.40475 1.46171 -0.404931
thorax -7.38999 0.761932 -0.0132715
lowerneck -50.7125 -5.2158 -2.52777
upperneck 16.5203 -6.0946 3.61935
head 12.7343 -2.13854 0.601417
rclavicle -1.11319e-014 4.77083e-015
rhumerus -15.3731 -33.0106 -22.5074
rradius 119.192
rwrist 11.1458
rhand -54.3881 -54.7618
rfingers 7.12502
rthumb -26.7947 -82.8839
lclavicle -1.11319e-014 4.77083e-015
lhumerus -0.0704877 24.8464 33.4666
lradius 109.315
lwrist -6.72853
lhand -39.5881 -59.9555
lfingers 7.12502
lthumb -12.5707 -30.3537
rfemur 34.7687 2.26631 21.1278
rtibia -18.4951
rfoot -12.7893 -15.9531
rtoes -2.17061
lfemur 37.9396 -2.05928 -13.2663
ltibia -27.1935
lfoot -1.70233 18.0686
ltoes -13.3524
897
root -1.03822 17.5666 7.75594 -7.94311 -2.34039 -4.53358
lowerback 1.1921 1.20136 -0.823834
upperback -6.44106 1.53688 -0.446975
thorax -7.39189 0.791037 -0.123114
lowerneck -50.5479 -5.09606 -2.39893
upperneck 16.5629 -5.97098 3.40346
head 12.7196 -2.11675 0.517804
rclavicle 7.95139e-016 2.22639e-014
rhumerus -14.9873 -33.2774 -22.2959
rradius 118.502
rwrist 10.9451
rhand -54.1786 -54.6881
rfingers 7.12502
rthumb -26.5943 -82.8407
lclavicle 7.95139e-016 2.22639e-014
lhumerus 0.453432 25.2015 33.3375
lradius 108.655
lwrist -6.56414
lhand -39.6049 -59.864
lfingers 7.12502
lthumb -12.5869 -30.2632
rfemur 34.2556 2.33853 21.0315
rtibia -18.1648
rfoot -12.971 -15.6848
rtoes -2.18196
lfemur 37.5729 -1.95993 -13.3151
ltibia -27.0007
lfoot -1.93791 18.0832
ltoes -12.6557
898
root -1.03434 17.575 7.74027 -7.78397 -2.47902 -4.48753
lowerback 1.22322 1.24373 -0.739531
upperback -6.46045 1.59317 -0.514424
thorax -7.42678 0.811296 -0.2461
lowerneck -50.529 -4.98561 -2.31108
upperneck 16.7399 -5.86522 3.29467
head 12.7815 -2.08247 0.480892
rclavicle 9.93923e-015 1.19271e-014
rhumerus -14.7317 -33.4908 -22.1459
rradius 117.813
rwrist 10.5592
rhand -54.005 -54.1185
rfingers 7.12502
rthumb -26.4281 -82.2961
lclavicle 9.93923e-015 1.19271e-014
lhumerus 0.897051 25.4567 33.1444
lradius 108.086
lwrist -6.22333
lhand -39.4241 -59.8176
lfingers 7.12502
lthumb -12.4125 -30.2061
rfemur 33.8506 2.46417 20.9694
rtibia -17.847
rfoot -13.0772 -15.4549
rtoes -2.17781
lfemur 37.3076 -1.92463 -13.366
ltibia -26.8347
lfoot -2.15131 18.0563
ltoes -11.8015
899
root -1.03207 17.5849 7.72305 -7.71304 -2.56845 -4.488
lowerback 1.36881 1.27379 -0.680269
upperback -6.49199 1.63353 -0.536289
thorax -7.54339 0.826603 -0.309528
lowerneck -50.4582 -4.89793 -2.28933
upperneck 16.898 -5.76943 3.26463
head 12.8361 -2.0445 0.484507
rclavicle -2.06736e-014 2.38542e-014
rhumerus -14.5657 -33.6794 -21.91
rradius 117.235
rwrist 10.0686
rhand -53.8825 -53.8911
rfingers 7.12502
rthumb -26.3109 -82.0863
lclavicle -2.06736e-014 2.38542e-014
lhumerus 1.12563 25.5896 32.9334
lradius 107.685
lwrist -5.9088
lhand -39.3094 -59.6695
lfingers 7.12502
lthumb -12.302 -30.0514
rfemur 33.5459 2.59945 20.9897
rtibia -17.533
rfoot -13.228 -15.3202
rtoes -1.88366
lfemur 37.1198 -1.95463 -13.392
ltibia -26.6691
lfoot -2.26282 18.1044
ltoes -11.698
